<?xml version="1.0" standalone="no"?>
<!DOCTYPE svg PUBLIC "-//W3C//DTD SVG 20010904//EN"
 "http://www.w3.org/TR/2001/REC-SVG-20010904/DTD/svg10.dtd">
<svg version="1.0" xmlns="http://www.w3.org/2000/svg"
 width="100.000000pt" height="100.000000pt" viewBox="0 0 100.000000 100.000000"
 preserveAspectRatio="xMidYMid meet">
<metadata>
Created by potrace 1.14, written by Peter Selinger 2001-2017
</metadata>
<g transform="translate(0.000000,100.000000) scale(0.100000,-0.100000)"
fill="#000000" stroke="none">
<path d="M0 500 l0 -500 500 0 500 0 0 500 0 500 -500 0 -500 0 0 -500z m824
204 c44 -6 46 -8 46 -40 l0 -32 -28 28 c-59 59 -191 46 -233 -24 -26 -43 -26
-134 1 -186 31 -61 73 -85 150 -85 l65 0 0 78 c0 76 0 77 25 77 25 0 25 -1 22
-74 -4 -95 -11 -101 -116 -101 -64 0 -88 4 -116 21 -98 57 -120 200 -44 283
49 55 113 70 228 55z m-417 -244 l53 -55 0 138 c0 133 -1 138 -22 147 -19 7
-14 9 25 9 44 1 47 0 33 -15 -13 -13 -16 -44 -17 -182 l0 -167 -144 149 -144
148 6 -133 c3 -74 10 -140 16 -146 7 -10 2 -13 -19 -13 l-29 0 3 167 c1 93 5
174 7 181 3 8 39 -23 92 -80 49 -51 112 -118 140 -148z"/>
</g>
</svg>
